<svg xmlns="http://www.w3.org/2000/svg" xmlns:xlink="http://www.w3.org/1999/xlink" width="1110" height="130"><style>.thick{stroke-width:2;stroke:#000;stroke-linejoin:round}.orange{fill:#c8641e}.red{fill:#c81e1e}.yellow{fill:#aaaa1e}.blue{fill:#3c3cc8}.green{fill:#32c832}.blackLine,.blackLine2{stroke-width:2;stroke:#000}.blackLine2{stroke-linecap:round}.grayLine{stroke-width:2;stroke:#aaa}</style><line x1="15" x2="15" y1="117" y2="13" class="blackLine"/><line x1="45" x2="45" y1="117" y2="13" class="grayLine"/><line x1="75" x2="75" y1="91" y2="39" class="grayLine"/><line x1="105" x2="114" y1="117" y2="126" class="blackLine2"/><line x1="135" x2="144" y1="91" y2="100" class="blackLine2"/><line x1="165" x2="174" y1="65" y2="74" class="blackLine2"/><line x1="195" x2="204" y1="39" y2="48" class="blackLine2"/><line x1="225" x2="234" y1="13" y2="22" class="blackLine2"/><line x1="255" x2="246" y1="117" y2="126" class="blackLine2"/><line x1="285" x2="276" y1="91" y2="100" class="blackLine2"/><line x1="315" x2="306" y1="65" y2="74" class="blackLine2"/><line x1="345" x2="336" y1="39" y2="48" class="blackLine2"/><line x1="375" x2="366" y1="13" y2="22" class="blackLine2"/><rect width="20" height="20" x="395" y="107" class="thick orange" rx="2" ry="2"/><rect width="20" height="20" x="425" y="81" class="thick red" rx="2" ry="2"/><rect width="20" height="20" x="455" y="55" class="thick yellow" rx="2" ry="2"/><rect width="20" height="20" x="485" y="29" class="thick blue" rx="2" ry="2"/><rect width="20" height="20" x="515" y="3" class="thick green" rx="2" ry="2"/><rect width="20" height="46" x="545" y="55" class="thick red" rx="2" ry="2"/><rect width="10" height="10" x="580" y="112" class="thick orange" rx="2" ry="2"/><rect width="10" height="10" x="610" y="86" class="thick red" rx="2" ry="2"/><rect width="10" height="10" x="640" y="60" class="thick yellow" rx="2" ry="2"/><rect width="10" height="10" x="670" y="34" class="thick blue" rx="2" ry="2"/><rect width="10" height="10" x="700" y="8" class="thick green" rx="2" ry="2"/><circle cx="735" cy="65" r="10" class="thick yellow"/><circle cx="765" cy="39" r="10" class="thick blue"/><circle cx="795" cy="13" r="10" class="thick green"/><polygon points="825 55 815 65 825 75 835 65" class="thick yellow"/><polygon points="855 29 845 39 855 49 865 39" class="thick blue"/><polygon points="885 3 875 13 885 23 895 13" class="thick green"/><polygon points="915 55 905 60 910 65 905 70 915 75 925 70 920 65 925 60" class="thick yellow"/><polygon points="945 29 935 34 940 39 935 44 945 49 955 44 950 39 955 34" class="thick blue"/><polygon points="975 3 965 8 970 13 965 18 975 23 985 18 980 13 985 8" class="thick green"/><polygon points="1005 112 1000 117 1005 122 1010 117" class="thick yellow"/><polygon points="1035 55 1025 75 1045 75" class="thick yellow"/><polygon points="1065 29 1055 49 1075 49" class="thick blue"/><polygon points="1095 3 1085 23 1105 23" class="thick green"/></svg>